<svg width="20" height="21" viewBox="0 0 20 21" fill="none" xmlns="http://www.w3.org/2000/svg">
<path d="M1.04102 8.27987C1.04102 5.4034 3.37287 3.07153 6.24935 3.07153C7.72245 3.07153 9.05259 3.68351 9.99935 4.66546C10.9461 3.68351 12.2763 3.07153 13.7493 3.07153C16.6258 3.07153 18.9577 5.4034 18.9577 8.27987C18.9577 10.8116 17.4717 13.1493 15.7039 14.9345C13.93 16.7259 11.7653 18.0709 10.1964 18.5922C10.0685 18.6347 9.93021 18.6347 9.80225 18.5922C8.23344 18.0709 6.06869 16.7259 4.29482 14.9345C2.52703 13.1493 1.04102 10.8116 1.04102 8.27987ZM6.24935 4.32153C4.06322 4.32153 2.29102 6.09375 2.29102 8.27987C2.29102 10.3315 3.51333 12.3688 5.18304 14.055C6.76737 15.655 8.6585 16.8405 9.99935 17.3367C11.3402 16.8405 13.2313 15.655 14.8157 14.055C16.4854 12.3688 17.7077 10.3315 17.7077 8.27987C17.7077 6.09375 15.9355 4.32153 13.7493 4.32153C12.4111 4.32153 11.2278 4.98504 10.5104 6.0038C10.3933 6.17004 10.2027 6.26895 9.99935 6.26895C9.79602 6.26895 9.60541 6.17004 9.48834 6.0038C8.77093 4.98504 7.58758 4.32153 6.24935 4.32153Z" fill="#999CA0"/>
</svg>
