<svg width="20" height="21" viewBox="0 0 20 21" fill="none" xmlns="http://www.w3.org/2000/svg">
<g clip-path="url(#clip0_34142_968)">
<path d="M1.25 9.86328C1.25 6.41152 4.04822 3.61328 7.5 3.61328C9.26772 3.61328 10.8639 4.34766 12 5.52599C13.1361 4.34766 14.7323 3.61328 16.5 3.61328C19.9518 3.61328 22.75 6.41152 22.75 9.86328C22.75 12.9014 20.9668 15.7066 18.8454 17.8489C16.7168 19.9986 14.1191 21.6125 12.2365 22.2381C12.083 22.2891 11.917 22.2891 11.7635 22.2381C9.88091 21.6125 7.28321 19.9986 5.15457 17.8489C3.03322 15.7066 1.25 12.9014 1.25 9.86328ZM7.5 5.11328C4.87665 5.11328 2.75 7.23994 2.75 9.86328C2.75 12.3252 4.21678 14.77 6.22043 16.7935C8.12163 18.7134 10.391 20.136 12 20.7315C13.609 20.136 15.8784 18.7134 17.7796 16.7935C19.7832 14.77 21.25 12.3252 21.25 9.86328C21.25 7.23994 19.1233 5.11328 16.5 5.11328C14.8941 5.11328 13.4741 5.90949 12.6132 7.132C12.4727 7.33149 12.244 7.45018 12 7.45018C11.756 7.45018 11.5273 7.33149 11.3868 7.132C10.5259 5.90949 9.10588 5.11328 7.5 5.11328Z" fill="#999CA0"/>
</g>
<defs>
<clipPath id="clip0_34142_968">
<rect width="20" height="20" fill="white" transform="translate(0 0.363281)"/>
</clipPath>
</defs>
</svg>
